HIERARCHY
ROOT Hips
{
	OFFSET 0.000000 0.000000 0.000000
	CHANNELS 6 Xposition Yposition Zposition Zrotation Yrotation Xrotation 
	JOINT LeftUpLeg_virtual
	{
		OFFSET 0.000000 0.000000 0.000000
		CHANNELS 3 Zrotation Yrotation Xrotation
		JOINT LeftUpLeg
		{
			OFFSET 8.479694 -4.795517 -0.379053
			CHANNELS 3 Zrotation Yrotation Xrotation
			JOINT LeftLeg
			{
				OFFSET 0.485052 -32.551468 0.112863
				CHANNELS 3 Zrotation Yrotation Xrotation
				JOINT LeftFoot
				{
					OFFSET 0.438033 -32.635670 -3.012641
					CHANNELS 3 Zrotation Yrotation Xrotation
					JOINT LeftToeBase
					{
						OFFSET 0.970169 -13.225353 11.864223
						CHANNELS 3 Zrotation Yrotation Xrotation
						End Site
						{
							OFFSET 0.000000 0.000000 0.000000
						}
					}
				}
			}
		}
	}
	JOINT RightUpLeg_virtual
	{
		OFFSET 0.000000 0.000000 0.000000
		CHANNELS 3 Zrotation Yrotation Xrotation
		JOINT RightUpLeg
		{
			OFFSET -8.479694 -4.795517 -0.379053
			CHANNELS 3 Zrotation Yrotation Xrotation
			JOINT RightLeg
			{
				OFFSET -0.484100 -32.551483 0.112903
				CHANNELS 3 Zrotation Yrotation Xrotation
				JOINT RightFoot
				{
					OFFSET -0.438985 -32.635651 -3.012681
					CHANNELS 3 Zrotation Yrotation Xrotation
					JOINT RightToeBase
					{
						OFFSET -0.970169 -13.225354 11.864223
						CHANNELS 3 Zrotation Yrotation Xrotation
						End Site
						{
							OFFSET 0.000000 0.000000 0.000000
						}
					}
				}
			}
		}
	}
	JOINT Spine_virtual
	{
		OFFSET 0.000000 0.000000 0.000000
		CHANNELS 3 Zrotation Yrotation Xrotation
		JOINT Spine
		{
			OFFSET 0.000000 7.722015 1.166203
			CHANNELS 3 Zrotation Yrotation Xrotation
			JOINT Spine1
			{
				OFFSET 0.000000 12.024086 0.248766
				CHANNELS 3 Zrotation Yrotation Xrotation
				JOINT Spine2
				{
					OFFSET -0.000000 11.503036 -0.491240
					CHANNELS 3 Zrotation Yrotation Xrotation
					JOINT Neck_virtual
					{
						OFFSET 0.000000 0.000000 0.000000
						CHANNELS 3 Zrotation Yrotation Xrotation
						JOINT Neck
						{
							OFFSET 0.000000 18.430687 -3.123054
							CHANNELS 3 Zrotation Yrotation Xrotation
							JOINT Head
							{
								OFFSET -0.000000 9.051071 1.034021
								CHANNELS 3 Zrotation Yrotation Xrotation
								End Site
								{
									OFFSET 0.000000 0.000000 0.000000
								}
							}
						}
					}
					JOINT LeftShoulder_virtual
					{
						OFFSET 0.000000 0.000000 0.000000
						CHANNELS 3 Zrotation Yrotation Xrotation
						JOINT LeftShoulder
						{
							OFFSET 6.197824 13.665230 -4.064723
							CHANNELS 3 Zrotation Yrotation Xrotation
							JOINT LeftArm
							{
								OFFSET 7.778132 -0.187073 -1.709282
								CHANNELS 3 Zrotation Yrotation Xrotation
								JOINT LeftForeArm
								{
									OFFSET 21.954697 0.000000 -2.041093
									CHANNELS 3 Zrotation Yrotation Xrotation
									JOINT LeftHand
									{
										OFFSET 22.992908 0.000000 -0.870901
										CHANNELS 3 Zrotation Yrotation Xrotation
										End Site
										{
											OFFSET 0.000000 0.000000 0.000000
										}
									}
								}
							}
						}
					}
					JOINT RightShoulder_virtual
					{
						OFFSET 0.000000 0.000000 0.000000
						CHANNELS 3 Zrotation Yrotation Xrotation
						JOINT RightShoulder
						{
							OFFSET -6.197824 13.665230 -4.064723
							CHANNELS 3 Zrotation Yrotation Xrotation
							JOINT RightArm
							{
								OFFSET -7.778132 -0.187073 -1.709282
								CHANNELS 3 Zrotation Yrotation Xrotation
								JOINT RightForeArm
								{
									OFFSET -21.954697 0.000000 -2.041093
									CHANNELS 3 Zrotation Yrotation Xrotation
									JOINT RightHand
									{
										OFFSET -22.992908 0.000000 -0.870901
										CHANNELS 3 Zrotation Yrotation Xrotation
										End Site
										{
											OFFSET 0.000000 0.000000 0.000000
										}
									}
								}
							}
						}
					}
				}
			}
		}
	}
}
MOTION
Frames: 11
Frame Time: 0.033333
-1.867839 49.298561 9.989687 -179.828458 -5.755534 -179.975293 5.199583 -6.034943 11.361361 -5.672921 5.415248 -94.737162 6.964434 -2.078931 112.146222 -19.364182 -13.710445 -25.338209 0.000000 0.000000 0.000000 7.464024 -5.197826 12.132942 -4.732317 -15.899442 -60.125534 3.400425 1.846785 131.740579 0.114398 16.870945 -37.413543 0.000000 0.000000 0.000000 8.729583 -2.439838 17.124942 -1.255981 0.097916 15.934242 -0.725623 -1.774867 2.593978 0.004123 0.077446 0.033305 -0.728174 -1.099914 5.809329 -2.252724 0.138699 -8.280750 0.000000 0.000000 0.000000 1.025422 -0.368577 1.564093 1.640017 -0.829550 -1.152497 -44.050684 -43.477187 -15.997118 165.067108 -79.829120 -140.797943 0.000000 0.000000 0.000000 -3.951050 1.356248 0.008339 20.699728 15.658134 5.470742 4.810905 37.289401 -47.715828 -179.324868 67.759643 172.289145 0.000000 0.000000 0.000000 
-2.327079 49.328903 9.969031 179.959201 -5.929826 -179.988407 4.090596 -6.801560 11.875267 -5.012946 4.900385 -94.918511 6.611923 -2.532058 112.130116 -19.086781 -14.056605 -26.336069 0.000000 0.000000 0.000000 5.900914 -5.246129 12.692207 -4.538677 -16.520640 -59.719178 3.274021 1.823557 130.988330 1.169118 18.081172 -37.742936 0.000000 0.000000 0.000000 7.432733 -2.546251 17.841545 -1.807480 0.376397 15.765089 -0.463594 -1.816764 2.843125 0.030086 -0.028265 -0.019714 -0.504892 -1.087627 6.409900 -1.986829 0.139771 -8.983278 0.000000 0.000000 0.000000 1.164108 -0.410556 2.142310 1.389452 -2.543017 -0.909797 -44.550288 -41.538379 -13.220826 165.437031 -80.084439 -141.445363 0.000000 0.000000 0.000000 -3.707732 1.459368 0.591776 21.294636 15.852034 7.503048 6.386442 32.747683 -45.093240 -179.582981 69.042250 172.517546 0.000000 0.000000 0.000000 
-2.733186 49.475193 9.840505 179.947781 -6.065491 -179.978599 3.110509 -7.635427 12.474255 -4.852401 4.634513 -94.977872 5.867767 -2.917810 112.029015 -18.108799 -13.745652 -27.524254 0.000000 0.000000 0.000000 4.340952 -5.089933 13.254665 -4.214818 -17.109984 -59.037123 3.073111 1.348230 129.953297 1.922438 18.958933 -38.086815 0.000000 0.000000 0.000000 6.241790 -2.788782 18.480209 -2.504993 0.445795 15.494810 -0.244197 -1.681409 3.067693 -0.012982 0.025836 -0.010313 -0.235656 -0.944769 6.959637 -1.867516 0.206142 -9.733892 0.000000 0.000000 0.000000 1.368916 -0.338032 2.674583 1.266837 -4.280472 -0.505011 -45.215548 -39.386907 -9.627487 165.303965 -80.222170 -141.591351 0.000000 0.000000 0.000000 -3.399346 1.624177 1.159185 21.958647 15.882609 9.591020 8.748119 28.349609 -41.723170 -179.378089 70.429380 173.260425 0.000000 0.000000 0.000000 
-3.090286 49.794231 9.595931 179.998817 -6.237546 179.989022 2.337374 -8.003021 13.023190 -3.939397 4.161548 -94.695990 5.930937 -2.720515 111.795334 -17.401743 -13.497795 -28.434170 0.000000 0.000000 0.000000 3.182055 -4.814669 13.850763 -3.448428 -17.795672 -58.249732 3.413318 1.018252 128.687239 1.944504 18.651904 -38.459255 0.000000 0.000000 0.000000 5.367403 -2.738108 19.055318 -3.219737 0.502227 15.184383 -0.010908 -1.631819 3.269450 -0.027600 -0.000154 -0.002277 -0.098901 -0.906774 7.468977 -1.918045 0.278127 -10.594682 0.000000 0.000000 0.000000 1.438965 -0.248943 3.191669 1.187683 -6.083857 -0.018102 -46.088651 -36.861397 -5.762810 165.355615 -80.331795 -141.881990 0.000000 0.000000 0.000000 -3.160179 1.632562 1.811960 22.836534 15.807747 11.734005 11.391068 24.342051 -38.089072 -179.010420 71.913197 174.168553 0.000000 0.000000 0.000000 
-3.421649 50.331120 9.282823 179.781166 -5.848494 179.915584 1.375997 -7.132511 13.598303 -3.531173 3.073017 -94.012534 7.026857 -3.593441 110.998381 -18.031551 -14.090309 -28.582287 0.000000 0.000000 0.000000 2.288413 -5.232537 14.455501 -2.447315 -17.738657 -57.431639 3.965323 1.353837 126.535101 2.080003 18.161468 -39.373879 0.000000 0.000000 0.000000 4.460067 -2.435245 19.548582 -4.150247 0.605605 14.933961 0.087488 -1.493346 3.485471 0.000353 0.048069 0.017419 0.040783 -0.752688 7.890757 -2.030094 0.387317 -11.576770 0.000000 0.000000 0.000000 1.528611 -0.107246 3.637645 1.273293 -7.794947 0.519211 -47.276606 -34.202708 -2.004472 164.757441 -80.327970 -141.569987 0.000000 0.000000 0.000000 -2.921318 1.693923 2.397949 23.882993 15.634021 13.763695 13.865631 20.878765 -34.647371 -178.336280 73.513080 175.362593 0.000000 0.000000 0.000000 
-3.686806 51.087315 8.949256 179.650723 -5.698682 179.972875 0.843777 -6.800110 14.030646 -3.215554 2.104151 -93.115224 7.891454 -3.989014 109.896432 -18.117159 -14.034841 -28.715433 0.000000 0.000000 0.000000 1.565977 -5.899602 14.792018 -2.099600 -17.350987 -56.278925 3.765251 1.549693 124.452781 2.843190 17.695569 -40.159118 0.000000 0.000000 0.000000 3.939303 -2.264219 19.715597 -4.963224 0.544357 14.716013 0.153836 -1.483638 3.648916 0.011913 -0.059604 -0.016607 0.037685 -0.601437 8.390181 -2.236599 0.286565 -12.644721 0.000000 0.000000 0.000000 1.490765 0.066349 4.112996 1.226201 -9.385390 0.919989 -48.503130 -31.393435 0.944228 164.042689 -80.498294 -141.196034 0.000000 0.000000 0.000000 -2.807984 1.917960 3.007957 25.012721 15.291385 15.823197 15.787882 18.279270 -31.755834 -177.345916 75.374785 176.858938 0.000000 0.000000 0.000000 
-4.016092 52.069859 8.676061 179.485555 -5.262721 179.898700 0.486338 -6.691165 14.418674 -3.213345 1.428460 -91.780715 8.574871 -4.147249 108.395560 -17.591265 -13.516413 -28.838876 0.000000 0.000000 0.000000 1.048488 -6.142948 14.864396 -2.146377 -17.092880 -55.129814 3.923530 1.791274 122.167769 3.595572 17.340083 -39.543606 0.000000 0.000000 0.000000 3.455713 -2.423587 19.839997 -5.726659 0.489707 14.680407 0.171817 -1.298594 3.852793 0.072271 -0.039664 -0.018433 -0.065961 -0.476453 8.727574 -2.484411 0.282139 -13.804938 0.000000 0.000000 0.000000 1.384892 0.182096 4.445638 1.130585 -10.834350 1.223363 -49.982160 -28.718299 3.291434 160.473642 -80.802791 -138.068804 0.000000 0.000000 0.000000 -2.818671 1.983669 3.460430 26.028008 15.041740 17.489403 17.036170 16.560296 -29.093724 -174.990731 77.569598 179.672661 0.000000 0.000000 0.000000 
-4.373543 53.267860 8.479515 179.445489 -4.646214 179.822406 0.243958 -6.637728 14.636791 -3.233585 0.771948 -90.005897 9.072074 -4.258831 106.410167 -16.736941 -12.821854 -28.802775 0.000000 0.000000 0.000000 0.596015 -6.088823 14.869086 -2.358765 -16.682845 -54.143466 4.152347 1.840089 119.707589 3.991923 17.537242 -38.357209 0.000000 0.000000 0.000000 3.187439 -2.585417 19.915203 -6.367345 0.288774 14.729477 0.108273 -1.125252 4.007590 0.042370 -0.072843 0.007796 -0.129009 -0.182146 8.905396 -2.724751 0.183926 -15.059527 0.000000 0.000000 0.000000 1.319686 0.467327 4.722129 0.929403 -11.929855 1.427195 -51.548732 -26.332876 4.998134 156.318223 -81.154047 -134.432466 0.000000 0.000000 0.000000 -2.765750 2.184309 3.817665 26.821755 14.825206 19.045368 17.303058 15.700131 -27.051615 -171.606536 80.191496 -176.491473 0.000000 0.000000 0.000000 
-4.734809 54.669750 8.312865 179.443823 -3.639297 179.747698 -0.042835 -6.451465 14.964031 -3.198124 0.009988 -88.015231 9.401977 -4.266110 103.856885 -15.649036 -12.035502 -28.638444 0.000000 0.000000 0.000000 0.201948 -6.240684 15.031313 -2.821502 -16.033213 -53.136638 4.333681 1.812084 116.824744 4.433354 17.938420 -37.077375 0.000000 0.000000 0.000000 2.866599 -2.535099 20.085631 -6.843941 0.305087 14.767267 0.051438 -0.897356 4.126143 0.088489 -0.060772 -0.009625 -0.284059 0.000819 9.025332 -2.902488 0.182823 -16.303503 0.000000 0.000000 0.000000 1.143248 0.617496 4.820169 0.738707 -12.827257 1.412498 -53.373390 -24.304595 6.191526 151.784876 -81.886127 -130.518986 0.000000 0.000000 0.000000 -2.881957 2.366519 3.946500 27.474207 14.360988 20.263271 16.942732 15.373059 -25.106471 -165.676347 83.179929 -170.129890 0.000000 0.000000 0.000000 
-5.100157 56.242058 8.112464 179.398798 -2.372050 179.829605 -0.381532 -6.090545 15.166662 -3.062952 -0.813624 -85.821648 9.537796 -4.246835 100.892870 -14.300519 -11.128532 -28.324359 0.000000 0.000000 0.000000 -0.191201 -6.147906 15.175395 -3.409552 -14.761439 -52.015517 4.791048 1.931340 113.316547 4.910640 18.626764 -35.639620 0.000000 0.000000 0.000000 2.530571 -2.019336 20.172026 -7.222117 0.048703 14.765542 -0.002861 -0.791422 4.132326 0.087371 -0.140760 -0.050223 -0.389196 0.232825 9.063530 -3.011646 0.106560 -17.624945 0.000000 0.000000 0.000000 1.002653 0.922449 4.878552 0.617022 -13.556615 1.456397 -55.246716 -22.622625 7.676755 142.054329 -82.751321 -121.426721 0.000000 0.000000 0.000000 -2.928757 2.638530 4.174543 27.846999 14.091802 20.946599 16.209531 15.531143 -22.822339 -151.000388 86.458345 -155.032809 0.000000 0.000000 0.000000 
-5.427583 57.954838 7.922865 179.288846 -1.097474 179.849550 -0.682712 -5.737708 15.173883 -2.713527 -1.711908 -83.235349 9.498234 -4.300812 97.669171 -12.770517 -10.112380 -27.769048 0.000000 0.000000 0.000000 -0.559413 -6.142189 15.200412 -4.013617 -13.294003 -50.558279 5.298270 2.121305 109.369654 5.493269 19.130701 -34.040543 0.000000 0.000000 0.000000 1.965323 -1.891104 20.088983 -7.540635 -0.016898 14.790478 -0.111331 -0.511180 4.103177 0.042157 -0.048330 -0.060482 -0.404063 0.527546 8.935393 -3.060799 0.038809 -18.911527 0.000000 0.000000 0.000000 0.923866 1.154252 4.924776 0.507516 -14.270732 1.368410 -57.118000 -21.529164 9.283888 124.621719 -83.874395 -104.658729 0.000000 0.000000 0.000000 -2.878241 2.822470 4.183496 28.169681 13.631728 21.728918 15.341486 16.030826 -20.468282 -74.521640 87.995526 -78.152500 0.000000 0.000000 0.000000 
